<svg xmlns="http://www.w3.org/2000/svg" width="1200" height="675" viewBox="0 0 1200 675" role="img" aria-labelledby="title desc">
  <title id="title">Domain shift object detection</title>
  <desc id="desc">Three camera domains flow into a shared detector with bounding boxes and a metric chart</desc>
  <defs>
    <linearGradient id="bg" x1="0" y1="0" x2="1" y2="1">
      <stop offset="0" stop-color="#0f172a"/>
      <stop offset="1" stop-color="#1e3a5f"/>
    </linearGradient>
  </defs>
  <rect width="1200" height="675" rx="32" fill="url(#bg)"/>
  <g fill="none" stroke="#7dd3fc" stroke-width="8">
    <rect x="90" y="115" width="250" height="145" rx="20"/>
    <rect x="90" y="315" width="250" height="145" rx="20" opacity=".72"/>
    <rect x="475" y="215" width="275" height="190" rx="24" stroke="#a7f3d0"/>
    <path d="M340 188h105M340 388h105M445 188l30 80M445 388l30-80" opacity=".8"/>
  </g>
  <g fill="#7dd3fc">
    <circle cx="150" cy="165" r="18"/><path d="M185 150h105v76H135v-26" opacity=".45"/>
    <circle cx="150" cy="365" r="18"/><path d="M185 350h105v76H135v-26" opacity=".28"/>
  </g>
  <g fill="none" stroke="#a7f3d0" stroke-width="7">
    <rect x="525" y="260" width="82" height="92" rx="8"/>
    <rect x="625" y="245" width="76" height="116" rx="8" opacity=".72"/>
  </g>
  <g transform="translate(825 170)">
    <path d="M0 300h285M0 300V0" fill="none" stroke="#94a3b8" stroke-width="5"/>
    <path d="M20 250l70-65 65 22 105-135" fill="none" stroke="#fbbf24" stroke-width="10" stroke-linecap="round" stroke-linejoin="round"/>
    <g fill="#fbbf24"><circle cx="20" cy="250" r="11"/><circle cx="90" cy="185" r="11"/><circle cx="155" cy="207" r="11"/><circle cx="260" cy="72" r="11"/></g>
  </g>
  <text x="90" y="565" fill="#f8fafc" font-family="system-ui, sans-serif" font-size="52" font-weight="700">Domain Shift Object Detection</text>
  <text x="92" y="615" fill="#bae6fd" font-family="system-ui, sans-serif" font-size="25">Cross-camera data selection · YOLOv7 · mAP evaluation</text>
</svg>
