<svg xmlns="http://www.w3.org/2000/svg" viewBox="0 0 1200 675" role="img" aria-labelledby="title description">
  <title id="title">Product grading conveyor workflow</title>
  <desc id="description">An abstract conveyor with two lanes, camera inspection, detection outlines, grading gates, structured results, and a control signal.</desc>
  <defs>
    <linearGradient id="background" x1="0" y1="0" x2="1" y2="1">
      <stop stop-color="#10283c"/>
      <stop offset="1" stop-color="#075f6b"/>
    </linearGradient>
    <pattern id="belt" width="48" height="48" patternUnits="userSpaceOnUse">
      <path d="M0 24h48" stroke="#8fb7bd" stroke-width="2" opacity=".3"/>
    </pattern>
  </defs>
  <rect width="1200" height="675" fill="url(#background)"/>
  <circle cx="1050" cy="88" r="175" fill="#23a6a5" opacity=".1"/>
  <circle cx="95" cy="610" r="210" fill="#f4b860" opacity=".08"/>

  <g transform="translate(96 206)">
    <rect width="806" height="280" rx="28" fill="#dff3f2" opacity=".12" stroke="#72d4d5" stroke-width="3"/>
    <rect x="28" y="28" width="750" height="96" rx="18" fill="url(#belt)" stroke="#9ddadb" stroke-width="3"/>
    <rect x="28" y="156" width="750" height="96" rx="18" fill="url(#belt)" stroke="#9ddadb" stroke-width="3"/>
    <path d="M62 76h672M62 204h672" stroke="#dff3f2" stroke-width="4" stroke-dasharray="12 18" opacity=".55"/>

    <g fill="#f4b860" stroke="#fff2d6" stroke-width="3">
      <rect x="120" y="48" width="72" height="58" rx="12"/>
      <rect x="302" y="46" width="82" height="62" rx="13"/>
      <rect x="182" y="176" width="78" height="60" rx="13"/>
      <rect x="448" y="174" width="84" height="64" rx="13"/>
    </g>
    <g fill="none" stroke="#55e1cf" stroke-width="5">
      <rect x="108" y="37" width="96" height="80" rx="10"/>
      <rect x="289" y="34" width="108" height="86" rx="10"/>
      <rect x="169" y="164" width="104" height="84" rx="10"/>
      <path d="M436 188c18-28 83-35 110 5v38c-30 20-78 18-110-4z"/>
    </g>
    <g stroke="#f4b860" stroke-width="7">
      <path d="M692 28v96M692 156v96"/>
      <path d="m692 64 34 20-34 20M692 192l34 20-34 20" fill="none"/>
    </g>
  </g>

  <g transform="translate(334 68)">
    <path d="M78 112v51M55 163h46" stroke="#dff3f2" stroke-width="8" stroke-linecap="round"/>
    <rect x="20" y="20" width="116" height="88" rx="18" fill="#dff3f2"/>
    <circle cx="78" cy="64" r="25" fill="#087f8c" stroke="#72d4d5" stroke-width="8"/>
    <path d="M78 174 16 260M78 174l62 86" stroke="#72d4d5" stroke-width="4" stroke-dasharray="8 10"/>
  </g>

  <g transform="translate(946 214)">
    <rect width="176" height="196" rx="24" fill="#eef9f8"/>
    <rect x="22" y="22" width="132" height="98" rx="12" fill="#173d50"/>
    <path d="M42 49h55M42 70h89M42 91h72" stroke="#72d4d5" stroke-width="8" stroke-linecap="round"/>
    <circle cx="55" cy="154" r="12" fill="#23a6a5"/>
    <circle cx="88" cy="154" r="12" fill="#f4b860"/>
    <circle cx="121" cy="154" r="12" fill="#cf5d58"/>
  </g>
  <path d="M902 350h44M1034 410v78H872" fill="none" stroke="#f4b860" stroke-width="5" stroke-dasharray="10 10"/>
  <path d="m900 488-24-14v28z" fill="#f4b860"/>

  <text x="96" y="566" fill="#eef9f8" font-family="Arial, sans-serif" font-size="34" font-weight="700">MULTI-SOURCE PRODUCT GRADING</text>
  <text x="98" y="608" fill="#9ddadb" font-family="Arial, sans-serif" font-size="22">inspect · track · grade · signal</text>
</svg>
